
        <svg xmlns="http://www.w3.org/2000/svg" xmlns:xlink="http://www.w3.org/1999/xlink" version="1.1" width="3135.3795767248694" 
        height="427.8954160562051" viewBox="0 0 3135.3795767248694 427.8954160562051">
			
			<g transform="scale(6.7689788362434715) translate(10, 10)">
				<defs id="SvgjsDefs1610"></defs><g id="SvgjsG1611" featureKey="nameLeftFeature-0" transform="matrix(1.4395541899545312,0,0,1.4395541899545312,-2.629057338258349,2.80416998652767)" fill="#ffffff"><path d="M10.176 20 l-4.3848 -5.9961 l-1.0352 0 l0 5.9961 l-2.9297 0 l0 -14.111 l2.9297 0 l0 5.5469 l0.99609 0 l4.4238 -5.5469 l3.5742 0 l-5.4688 6.748 l5.6348 7.3633 l-3.7402 0 z M17.832059375 20 l0 -14.111 l2.9297 0 l0 14.111 l-2.9297 0 z M35.85953125 5.888999999999999 l2.9199 0 l0 14.111 l-3.3887 0 l-6.25 -10.088 l0 10.088 l-2.9199 0 l0 -14.111 l3.3496 0 l6.2891 10.029 l0 -10.029 z M52.431875 5.888999999999999 l0 2.5781 l-3.3496 0 l0 11.533 l-2.9004 0 l0 -11.533 l-3.3691 0 l0 -2.5781 l9.6191 0 z M65.908671875 20 l-1.0254 -2.9102 l-5.9277 0 l-1.0254 2.9102 l-2.998 0 l5.1953 -14.111 l3.584 0 l5.1953 14.111 l-2.998 0 z M59.814471875 14.6387 l4.209 0 l-2.0996 -5.9863 z M89.29734375 20 l-1.0254 -2.9102 l-5.9277 0 l-1.0254 2.9102 l-2.998 0 l5.1953 -14.111 l3.584 0 l5.1953 14.111 l-2.998 0 z M83.20314375 14.6387 l4.209 0 l-2.0996 -5.9863 z M101.455096875 20.19531 c-3.0957 0 -5.5176 -1.582 -5.5176 -5.1367 l0 -9.1699 l2.9297 0 l0 8.7695 c0 2.1484 1.1426 2.9492 2.5879 2.9492 c1.4551 0 2.6074 -0.81055 2.6074 -2.9492 l0 -8.7695 l2.9297 0 l0 9.1699 c0 3.5547 -2.4316 5.1367 -5.5371 5.1367 z M120.351796875 5.888999999999999 l0 2.5781 l-3.3496 0 l0 11.533 l-2.9004 0 l0 -11.533 l-3.3691 0 l0 -2.5781 l9.6191 0 z M130.63479375 20.19531 c-4.1504 0 -7.2168 -2.832 -7.2168 -7.2559 c0 -4.4336 3.0664 -7.2461 7.2168 -7.2461 c4.1406 0 7.207 2.8125 7.207 7.2461 c0 4.4238 -3.0664 7.2559 -7.207 7.2559 z M130.63479375 17.5098 c2.4316 0 4.2969 -1.709 4.2969 -4.5703 c0 -2.8516 -1.8652 -4.5508 -4.2969 -4.5508 s-4.2969 1.6992 -4.2969 4.5508 c0 2.8613 1.8652 4.5703 4.2969 4.5703 z"></path></g><g id="SvgjsG1612" featureKey="inlineSymbolFeature-0" transform="matrix(1.920630021868481,0,0,1.920630021868481,216,0)" fill="#ffffff"><g xmlns="http://www.w3.org/2000/svg"><path d="M45,12.5l-7-2l-1-3h-1l-4-4h-7v11h7v5h2.051C34.032,19.334,34,19.171,34,19c0-2.481,2.019-4.5,4.5-4.5S43,16.519,43,19   c0,0.171-0.032,0.334-0.051,0.5H46v-3h-1V12.5z M28,6.5h-1v-1h1V6.5z M31,6.5h-2v-1h2V6.5z M32,10.5v-2h4.279l0.666,2H32z"></path><path d="M38.5,15.5c-1.933,0-3.5,1.566-3.5,3.5c0,1.933,1.567,3.5,3.5,3.5S42,20.933,42,19C42,17.066,40.433,15.5,38.5,15.5z    M38.5,21.5c-1.379,0-2.5-1.121-2.5-2.5s1.121-2.5,2.5-2.5S41,17.621,41,19S39.879,21.5,38.5,21.5z"></path><path d="M22,2.5H0v12h22V2.5z M5,5.5H4v-1h1V5.5z M20,5.5H6v-1h14V5.5z"></path><path d="M24,14.5v-12C24,1.636,23.478,0,21.5,0v1c1.411,0,1.497,1.252,1.5,1.5v12H24z"></path><path d="M6.5,22.5c1.762,0,3.205-1.307,3.449-3h1.102c0.244,1.693,1.688,3,3.449,3s3.205-1.307,3.449-3H19v-1h-1.051   c-0.244-1.694-1.688-3-3.449-3s-3.205,1.306-3.449,3H9.949c-0.244-1.694-1.688-3-3.449-3s-3.205,1.306-3.449,3H0v1h3.051   C3.295,21.193,4.738,22.5,6.5,22.5z M14.5,16.5c1.379,0,2.5,1.121,2.5,2.5s-1.121,2.5-2.5,2.5S12,20.379,12,19   S13.121,16.5,14.5,16.5z M6.5,16.5C7.879,16.5,9,17.621,9,19s-1.121,2.5-2.5,2.5S4,20.379,4,19S5.121,16.5,6.5,16.5z"></path><rect x="29" y="15.5" width="2" height="5"></rect><rect x="20" y="15.5" width="8" height="5"></rect><circle cx="6.5" cy="19" r="1.5"></circle><circle cx="14.5" cy="19" r="1.5"></circle><circle cx="38.5" cy="19" r="1.5"></circle></g></g><g id="SvgjsG1613" featureKey="nameRightFeature-0" transform="matrix(1.4395481312693996,0,0,1.4395481312693996,312.9081101508881,2.8042923435527953)" fill="#ffffff"><path d="M13.52541875 20.19531 c-3.0273 0 -5.3906 -1.4551 -5.8203 -4.1016 l3.0273 -0.69336 c0.19531 1.582 1.3574 2.4023 2.9102 2.4023 c1.1914 0 2.1387 -0.52734 2.1289 -1.7188 c-0.0097656 -1.3281 -1.5723 -1.748 -3.291 -2.2754 c-2.0703 -0.64453 -4.2871 -1.4063 -4.2871 -4.0039 c0 -2.627 2.1484 -4.1113 4.9805 -4.1113 c2.4805 0 4.9805 1.0059 5.5469 3.7109 l-2.832 0.70313 c-0.26367 -1.4063 -1.2109 -2.0215 -2.5391 -2.0215 c-1.1816 0 -2.1875 0.48828 -2.1875 1.6504 c0 1.084 1.3867 1.4453 2.9883 1.9238 c2.1289 0.64453 4.6484 1.4648 4.6484 4.2773 c0 2.998 -2.5098 4.2578 -5.2734 4.2578 z M28.544940625 20.19531 c-3.0957 0 -5.5176 -1.582 -5.5176 -5.1367 l0 -9.1699 l2.9297 0 l0 8.7695 c0 2.1484 1.1426 2.9492 2.5879 2.9492 c1.4551 0 2.6074 -0.81055 2.6074 -2.9492 l0 -8.7695 l2.9297 0 l0 9.1699 c0 3.5547 -2.4316 5.1367 -5.5371 5.1367 z M45.126940625 5.888999999999999 c2.7637 0 4.4824 2.0508 4.4824 4.5605 c0 2.5684 -1.7188 4.4922 -4.4824 4.4922 l-2.9395 0 l0 5.0586 l-2.9297 0 l0 -14.111 l5.8691 0 z M44.638640625 12.4902 c1.4648 0 2.1484 -0.81055 2.1484 -2.0801 c0 -1.2207 -0.68359 -2.0703 -2.1484 -2.0703 l-2.4512 0 l0 4.1504 l2.4512 0 z M59.755846875 5.888999999999999 c2.7637 0 4.4824 2.0508 4.4824 4.5605 c0 2.5684 -1.7188 4.4922 -4.4824 4.4922 l-2.9395 0 l0 5.0586 l-2.9297 0 l0 -14.111 l5.8691 0 z M59.267546875 12.4902 c1.4648 0 2.1484 -0.81055 2.1484 -2.0801 c0 -1.2207 -0.68359 -2.0703 -2.1484 -2.0703 l-2.4512 0 l0 4.1504 l2.4512 0 z M71.445353125 17.4121 l4.4238 0 l0 2.5879 l-7.3535 0 l0 -14.111 l2.9297 0 l0 11.523 z M90.507703125 5.888999999999999 l-4.6387 7.3535 l0 6.7578 l-2.9395 0 l0 -6.6895 l-4.668 -7.4219 l3.2422 0 l2.8809 4.8047 l2.8906 -4.8047 l3.2324 0 z"></path></g>
			</g>
		</svg>
	